<?xml version="1.0" encoding="UTF-8"?>
<svg id="Capa_2" data-name="Capa 2" xmlns="http://www.w3.org/2000/svg" xmlns:xlink="http://www.w3.org/1999/xlink" viewBox="0 0 300.24 300.24">
  <defs>
    <style>
      .cls-1 {
        fill: url(#Degradado_sin_nombre_3);
      }

      .cls-2 {
        fill: url(#Degradado_sin_nombre_2);
      }
    </style>
    <linearGradient id="Degradado_sin_nombre_2" data-name="Degradado sin nombre 2" x1="9.65" y1="290.09" x2="21.9" y2="278.36" gradientTransform="translate(0 3750) scale(12.5 -12.5)" gradientUnits="userSpaceOnUse">
      <stop offset="0" stop-color="#ffe052"/>
      <stop offset="1" stop-color="#ffc331"/>
    </linearGradient>
    <linearGradient id="Degradado_sin_nombre_3" data-name="Degradado sin nombre 3" x1="2.64" y1="297.37" x2="14.04" y2="285.93" gradientTransform="translate(0 3750) scale(12.5 -12.5)" gradientUnits="userSpaceOnUse">
      <stop offset="0" stop-color="#387eb8"/>
      <stop offset="1" stop-color="#366994"/>
    </linearGradient>
  </defs>
  <path class="cls-2" d="M151.16,293.84c73.16,0,68.59-31.72,68.59-31.72l-.09-32.87h-69.81v-9.86h97.54s46.81,5.31,46.81-68.5-40.86-71.19-40.86-71.19h-24.39v34.25s1.31,40.86-40.21,40.86H119.52s-38.9-.63-38.9,37.6v63.21s-5.91,38.24,70.54,38.24Zm38.5-22.1c-6.93,0-12.55-5.6-12.56-12.53,0-.01,0-.02,0-.04,0-6.93,5.62-12.55,12.56-12.55s12.56,5.61,12.56,12.55-5.62,12.56-12.56,12.56Z"/>
  <path class="cls-1" d="M149.08,7.19c-73.16,0-68.59,31.72-68.59,31.72l.09,32.87h69.81v9.86H52.84S6.04,76.32,6.04,150.15s40.86,71.19,40.86,71.19h24.39v-34.25s-1.31-40.86,40.21-40.86h69.23s38.9,.63,38.9-37.6V45.43S225.53,7.19,149.08,7.19Zm-38.5,22.1c6.94,0,12.56,5.62,12.56,12.56s-5.62,12.56-12.56,12.56c-6.93,0-12.55-5.6-12.56-12.53,0-.01,0-.02,0-.04,0-6.94,5.62-12.56,12.56-12.56Z"/>
</svg>